<?xml version="1.0" encoding="UTF-8"?><svg xmlns="http://www.w3.org/2000/svg" viewBox="0 0 271.3 65.4"><g id="a"/><g id="b"><g id="c"><g><rect x="22.1" y="47.2" width="1.9" height="12.2"/><polygon points="10.5 57 10.4 56.8 4.6 43.9 2.6 43.9 2.6 59.4 4.4 59.4 4.4 47.3 4.6 47.7 9.8 59.4 11.1 59.4 16.5 47.3 16.5 59.4 18.3 59.4 18.3 43.9 16.3 43.9 10.5 57"/><path d="M13.2,27.4l1-1.3c-.1-.1-1.2-1-3.3-2.1,1-1,1.8-2.4,2.2-4l3.9-.1v-1.6l-10,.1,1.1-1.9h6v-5.3h-5.4v-1.3h5.4v-3.4h2v-1.6h-2V1.6h-5.4V0h-1.6V1.6H2v3.3H0v1.6H2v1.8h.1v1.6H7.2v1.5H1.4v5.3H6.3l-1.2,2-4.7,.1v1.6l3.7-.1-1.7,2.8,1.4,.8,.6-.9c1.3,.5,2.5,.9,3.6,1.4-2.8,1.8-6.2,2.1-6.2,2.1l.1,1.6c.3,0,4.4-.5,7.7-2.9,2.3,1.2,3.6,2.2,3.6,2.2ZM8.7,3.2h3.8v1.7h-3.8v-1.7Zm0,3.3h3.8v1.8h-3.8v-1.8Zm0,6.4h3.8v2.1h-3.8v-2.1ZM3.7,3.2h3.5v1.7H3.7v-1.7Zm0,5v-1.7h3.5v1.7H3.7Zm-.7,6.8v-2.1H7.2v2.1H3Zm2.2,6.5l.8-1.3,5.5-.1c-.5,1.3-1.2,2.3-2.1,3.1-1.2-.6-2.6-1.2-4.2-1.7Z"/><path d="M70.2,49.2l-.1,.3v-2.3h-1.9v12.2h1.9v-6.6c0-2.6,1.2-3.8,3.5-3.8h.4v-2c-1.8,0-3.1,.8-3.8,2.2Z"/><polygon points="81.4 57.4 81.3 57.1 77.5 47.2 75.4 47.2 80.3 59.3 80.3 59.4 77.9 65.2 79.9 65.2 87.2 47.2 85.3 47.2 81.4 57.4"/><path d="M62.2,44.1h-1.9v3.1h-1.6v1.5h1.6v7.4c0,2.3,1,3.3,3.3,3.3h1.8v-1.5h-1.4c-1.3,0-1.8-.5-1.8-1.7v-7.4h3.2v-1.5h-3.2v-3.2Z"/><path d="M43.3,42.4c-.7,0-1.3,.6-1.3,1.3s.6,1.3,1.3,1.3,1.3-.6,1.3-1.3c0-.8-.6-1.3-1.3-1.3Z"/><path d="M23.1,42.3c-.8,0-1.4,.6-1.4,1.4s.6,1.4,1.4,1.4c.7,0,1.4-.6,1.4-1.4s-.7-1.4-1.4-1.4Zm.89,.47c.25,.24,.41,.57,.41,.93-.05-.39-.2-.7-.41-.93Z"/><path d="M33.6,47c-1.6,0-3,.7-3.8,1.9h0l-.2,.3v-2h-1.9v12.2h1.9v-6.7c0-2.5,1.4-4.1,3.6-4.1s3.6,1.5,3.6,3.9v6.9h1.8v-7.2c0-3.2-1.9-5.2-5-5.2Z"/><rect x="42.4" y="47.2" width="1.9" height="12.2"/><path d="M52.8,52.5c-1.6-.4-3.1-.9-3.1-2.3-.2-.9,.8-1.7,2.3-1.7,1.6,0,2.6,.8,2.8,2.1h1.9c-.2-2.3-1.9-3.7-4.6-3.7s-4.4,1.4-4.4,3.4c0,2.5,2.3,3.1,4.3,3.7,1.6,.4,3,.8,3,2.1,0,1.2-1.1,1.9-2.6,1.9-1.7,0-2.8-.8-3-2.1h-1.9c.2,2.2,2.2,3.6,5,3.6,2.6,0,4.4-1.4,4.4-3.5,0-2.4-2.2-3-4.1-3.5Z"/><path d="M227.6,46.2h-.1c0-1.7,.7-2.4,2.5-2.4v-1.5c-3,0-4.3,1.2-4.3,3.9v1h-1.6v1.5h1.6v10.7h1.9v-10.7h2.6v-1.5h-2.6v-1Z"/><path d="M169.2,44.1h-1.9v3.1h-1.6v1.5h1.6v7.4c0,2.3,1,3.3,3.3,3.3h1.8v-1.5h-1.4c-1.3,0-1.8-.5-1.8-1.7v-7.4h3.2v-1.5h-3.2v-3.2Z"/><rect x="248.2" y="47.2" width="1.9" height="12.2"/><path d="M255.8,49.2l-.1,.3v-2.3h-1.9v12.2h1.9v-6.6c0-2.6,1.2-3.8,3.5-3.8h.4v-2c-1.8,0-3.1,.8-3.8,2.2Z"/><path d="M184.9,49.7l-.2-.3c-.8-1.5-2.5-2.4-4.5-2.4-3.4,0-5.8,2.6-5.8,6.2s2.4,6.3,5.8,6.3c2,0,3.7-.9,4.5-2.5l.2-.3v2.6h1.9v-12.1h-1.9v2.5Zm-4.3,8.2c-2.5,0-4.3-1.9-4.3-4.7s1.8-4.7,4.3-4.7c2.5,.1,4.3,2,4.3,4.7s-1.8,4.7-4.3,4.7Z"/><circle cx="162.1" cy="43.7" r="1.3"/><path d="M242.5,49.7l-.2-.3c-.8-1.5-2.5-2.4-4.5-2.4-3.4,0-5.8,2.6-5.8,6.2s2.4,6.3,5.8,6.3c2,0,3.7-.9,4.5-2.5l.2-.3v2.6h1.9v-12.1h-1.9v2.5Zm-4.3,8.2c-2.5,0-4.3-1.9-4.3-4.7s1.8-4.7,4.3-4.7c2.5,.1,4.3,2,4.3,4.7s-1.8,4.7-4.3,4.7Z"/><path d="M220,46.2c0-1.7,.7-2.4,2.5-2.4v-1.5c-3,0-4.3,1.2-4.3,3.9v1h-1.6v1.5h1.6v10.7h1.9v-10.7h2.6v-1.5h-2.7v-1Z"/><rect x="161.2" y="47.2" width="1.9" height="12.2"/><rect x="190.6" y="42.8" width="1.9" height="16.5"/><path d="M207.1,43.9l-5.6,15.4h2l1.3-3.5h7v.1l1.2,3.4h2l-5.6-15.4h-2.3Zm-1.9,10.5v-.1l2.9-8.2,3,8.3h-5.9Z"/><path d="M249.2,42.4c-.7,0-1.3,.6-1.3,1.3s.6,1.3,1.3,1.3,1.3-.6,1.3-1.3c-.1-.8-.6-1.3-1.3-1.3Z"/><path d="M112.7,46.2h-.1c0-1.7,.7-2.4,2.5-2.4v-1.5c-3,0-4.3,1.2-4.3,3.9v1h-1.6v1.5h1.6v10.7h1.9v-10.7h2.6v-1.5h-2.6v-1Z"/><path d="M128.8,43.8h-4.8v15.5h4.8c5.1,0,8.3-3,8.3-7.7s-3.2-7.8-8.3-7.8Zm0,14.1h-2.9v-12.6h2.9c4,0,6.4,2.3,6.4,6.3s-2.3,6.3-6.4,6.3Z"/><path d="M155.6,49.7l-.2-.3c-.7-1.2-2.2-2.4-4.6-2.4-3.4,0-5.8,2.6-5.8,6.2s2.4,6.3,5.8,6.3c2.3,0,3.9-1.3,4.5-2.5l.2-.3v3c0,2.5-1.5,4.1-3.9,4.1-2,0-3.5-1-4-2.5h-1.8c.4,2.5,2.7,4.1,5.9,4.1,3.5,0,5.8-2.3,5.8-5.7v-12.5h-1.9v2.5Zm-4.4,8.2c-2.5,0-4.3-1.9-4.3-4.7s1.8-4.7,4.3-4.7c2.5,.1,4.3,2,4.3,4.7s-1.8,4.7-4.3,4.7Z"/><path d="M267,52.6c-1.6-.4-3.1-.9-3.1-2.3,0-1.1,1-1.8,2.5-1.8,1.6,0,2.6,.8,2.8,2.1h1.9c-.2-2.3-1.9-3.7-4.6-3.7s-4.4,1.4-4.4,3.4c0,2.5,2.3,3.1,4.3,3.7,1.6,.4,3,.8,3,2.1,0,1.2-1.1,1.9-2.6,1.9-1.7,0-2.8-.8-3-2.1h-1.9c.2,2.2,2.2,3.6,5,3.6,2.6,0,4.4-1.4,4.4-3.5-.2-2.3-2.4-2.9-4.3-3.4Z"/><path d="M101.2,47c-3.6,0-6.2,2.6-6.2,6.3s2.5,6.3,6.1,6.3,6.2-2.6,6.2-6.3-2.5-6.3-6.1-6.3Zm-.1,10.9c-1.9,0-4.2-1.2-4.2-4.7s2.3-4.7,4.2-4.7c2.1,0,4.3,1.4,4.3,4.7s-2.2,4.7-4.3,4.7Z"/><rect x="140.1" y="47.2" width="1.9" height="12.2"/><circle cx="141.1" cy="43.7" r="1.3"/><path d="M94.2,12.6v-.8h3.4c.2,0,.3,.2,.3,.5v3.4c0,1.2,.9,2.1,2,2.1h1.7c.5,0,1.3-.4,1.7-1l.8-1.5-1.6-.9-.8,1.5s-.1,.1-.2,.1h-1.7c-.1,0-.2-.1-.2-.3v-3.4c0-1.3-1-2.3-2.1-2.3h-3.5c-.4,0-.8,.2-1.1,.4-.6,.6-.5,1.5-.5,2.3,.1,3.6-1.6,3.9-1.7,3.9l.2,1.8c.1,0,3.5-.3,3.3-5.8Z"/><polygon points="47.4 8.2 65.7 8.2 65.7 6.4 57.4 6.4 57.4 .2 55.6 .2 55.6 6.4 47.4 6.4 47.4 8.2"/><path d="M168,13.2h-3.9c.5-2.5,1.2-5.9,1.5-7.3h1.9v-1.8h-6.2V1.1h-1.8v3h-6.2v1.8h1.9c.3,1.4,1,4.8,1.4,7.3h-3.9v1.8h15.3v-1.8Zm-5.6,0h-4c-.3-2.4-1-5.6-1.3-7.3h6.7c-.4,1.7-1,4.9-1.4,7.3Z"/><path d="M103,29.2l.5-1.7c-2.3-.7-4.1-1.6-5.5-2.4,2.5-2.4,3.2-4.8,3.2-5,.1-.3,0-.6-.2-.8s-.4-.4-.7-.4h-8c-.3,0-.5,.1-.7,.3-.2,.2-.3,.4-.2,.7,0,.2,.3,2.6,3.6,5.2-1.4,.9-3.2,1.8-5.5,2.3l.5,1.8c2.9-.6,5-1.7,6.6-2.9,1.6,1,3.7,2,6.4,2.9Zm-9.4-8.5h5.5c-.4,.9-1.2,2.1-2.6,3.3-1.7-1.3-2.5-2.5-2.9-3.3Z"/><path d="M104.8,12.1l.6-1.7c-1.7-.6-3.2-1.4-4.6-2.4l2.9-2.6-1.2-1.3-3.2,2.9c-.7-.6-1.4-1.2-2-1.8,1.6-1.5,2.8-2.6,2.8-2.6l-1.2-1.3s-1.1,1.1-2.8,2.5c-1.4-1.7-2.3-3-2.3-3l-1.5,.9c.2,.3,4.7,7.8,12.5,10.4Z"/><path d="M63.4,11.2l.2-.9-1.8-.3-.2,.9c0,.1-1.4,7.1-3.6,14.1h-3.8c-.8-5-1.5-10-1.9-12.5-.1-.8-.2-1.4-.2-1.5l-.1-1-1.8,.3,.1,.9c0,.2,.1,.7,.2,1.5,.3,2.4,1.1,7.3,1.9,12.2h-5.4v1.8h19.4v-1.8h-6.6c2.3-6.9,3.6-13.6,3.6-13.7Z"/><path d="M140.7,22.1l-1.2-1.3s-2,1.7-4.1,2.8c-1.4-1.5-2.3-2.9-2.8-3.9h10v-1.8h-6.3v-3.3h4.6v-1.8h-4.6v-3.3h3.7c.5,0,.9-.4,.9-.9V3.7c0-.8-.6-1.4-1.4-1.4h-19.7c-.2,0-.5,.1-.6,.3-.2,.2-.3,.4-.2,.7,0,.2,.9,19.3-3.3,24.8l1.4,1.1c1.6-2,2.5-5.6,3-9.5h4.7v6.9l-3.5,.6,.3,1.8,11.1-2-.3-1.8-5.9,1h0v-6.6h4.1c.8,1.9,3.7,7.7,11.7,10l.5-1.7c-2.5-.7-4.5-1.9-6-3.1,2-1.2,3.8-2.7,3.9-2.7Zm-6.2-9.3h-6.6v-3.3h6.6v3.3Zm-8.4-.1h-4.2v1.8h4.2v3.3h-5.9c.3-2.9,.4-5.8,.5-8.3h5.4v3.2Zm-5.4-5c0-1.6,0-2.8-.1-3.6h18.4v3.6h-18.3Zm7.2,10.1v-3.3h6.6v3.3h-6.6Z"/><path d="M175,23.7h-.9v1.8h.9c2.3,0,3.9-.7,4.7-2.2,1.7-3.3-1.8-9-2.8-10.7l2.3-6.9h0c.3-.7,.2-1.6-.3-2.3-.4-.6-1.2-1-1.9-1h-5.4c-.8,0-1.4,.6-1.4,1.4V29.3h1.8V4.3h5c.2,0,.4,.2,.4,.2,.1,.1,.2,.3,0,.6l-2.4,7.4c-.1,.3,0,.6,.1,.8,1.7,2.5,4,7.2,3,9.2-.4,.8-1.5,1.2-3.1,1.2Z"/><path d="M88.4,10.1h-5c5.2-3.4,6.7-6.9,6.8-7.1,.1-.3,.1-.6-.1-.8s-.4-.4-.7-.4h-8.4v1.8h6.8c-.6,.9-1.6,2.1-3.2,3.4-1.6-1.4-3.3-2.4-3.3-2.4l-.9,1.4s1.5,.8,2.8,2c-1.5,1.1-3.4,2.2-5.8,3.2l.7,1.7c1.4-.6,2.6-1.2,3.8-1.9v.9h5.5v3h-5.4c-.4,0-.8,.3-.9,.7l-1.4,5.9,1.7,.4,.2-.8h5.7c-.2,2.5-.6,5.2-1,5.7-.4,.4-1.9,.3-3,.3h-1.4v1.8h2.7c1.2,0,2.3-.2,3-.9,1.2-1.4,1.5-6.3,1.6-7.8,0-.2-.1-.5-.2-.7-.2-.2-.4-.3-.6-.3h-6.2l.6-2.7h4.7v.6h1.8v-6.1c0-.5-.4-.9-.9-.9Z"/><path d="M28,28l1.1-1.1c-2.1-2.1-4.1-4.9-5.7-7.9,1.5-3,2.7-6.8,2.8-11.6h1.9v-1.6h-8.3c.7-3,1-5.4,1-5.6l-1.6-.2c0,.1-.9,8.1-4.1,13.7l1.4,.9c.7-1.2,1.3-2.6,1.8-3.9,.6,2.6,1.7,5.5,3.3,8.3-2.7,4.9-6.1,7.3-6.2,7.3l.9,1.3c.2-.2,3.5-2.4,6.2-6.9,1.6,2.8,3.5,5.3,5.5,7.3ZM19.4,7.4h5.1c0,3.9-.9,7.1-2.1,9.7-1.8-3.5-2.9-7.1-3-9.7Z"/><path d="M166.2,29v-10.5c0-.5-.4-.9-.9-.9h-9.7c-.5,0-.9,.4-.9,.9v10.5h1.8v-1.3h7.9v1.3h1.8Zm-9.7-3.2v-6.4h7.9v6.4h-7.9Z"/><path d="M42.7,27.9h1.8V7.1c2-3.1,3-5.5,3.1-5.7l-1.6-.7c0,.1-2.8,6.3-7.6,11.4l1.3,1.2c1.1-1.2,2.1-2.5,3-3.7V27.9Z"/></g></g></g></svg>