<?xml version="1.0" encoding="UTF-8"?><svg xmlns="http://www.w3.org/2000/svg" viewBox="0 0 105.2 55.9"><g id="a"/><g id="b"><g id="c"><g><path d="M51.6,37.9c-11.8,0-12.1,17.9,0,17.9s11.8-17.9,0-17.9Zm0,15.6c-8.7-.2-8.7-13,0-13.2,8.7,.1,8.7,13,0,13.2Z"/><path d="M79.9,13.7c-.7,0-1.2,.5-1.2,1.2v8.9c-1.4-1.8-3.6-3-6.5-3-5.9,0-8.9,4.5-9,9,0,4.5,3.1,9,9,9,3,0,5.1-1.2,6.5-3v1.5c0,.7,.5,1.2,1.2,1.2s1.2-.5,1.2-1.2V14.9c.1-.7-.5-1.2-1.2-1.2Zm-7.7,22.7c-4.3-.1-6.5-3.3-6.5-6.6s2.2-6.5,6.5-6.6c4.3,.1,6.5,3.3,6.5,6.6s-2.2,6.5-6.5,6.6Z"/><path d="M104,.3c-.7,0-1.2,.6-1.2,1.2v1.5c-1.4-1.7-3.5-3-6.5-3-5.9,0-8.9,4.5-9,9,0,4.5,3.1,9,9,9,3,0,5.1-1.2,6.5-3v1.5c0,.7,.6,1.2,1.2,1.2,.7,0,1.2-.6,1.2-1.2V1.5c0-.6-.5-1.2-1.2-1.2Zm-7.7,15.3c-4.3-.1-6.5-3.3-6.5-6.6s2.2-6.5,6.5-6.6c4.3,.1,6.5,3.3,6.5,6.6s-2.2,6.5-6.5,6.6Z"/><path d="M24.3,38.2c-3.7,0-6.3,1.8-7.7,4.3-1.4-2.5-4-4.3-7.7-4.3-2.7,0-5.1,1.2-6.5,3.1v-1.5c0-.7-.5-1.2-1.2-1.2s-1.2,.6-1.2,1.2v14.9c0,.7,.5,1.2,1.2,1.2s1.2-.5,1.2-1.2c0-1.4-.1-7.4,.1-9.5,.1-.4,.2-.7,.2-.9,.9-2.2,3.1-3.6,6.2-3.7,4.3,.1,6.5,3.3,6.5,6.6v7.5c0,.7,.6,1.2,1.2,1.2s1.2-.6,1.2-1.2v-7.5c0-3.3,2.2-6.5,6.5-6.6,2.8,0,4.7,1.3,5.6,3.1,.6,1.1,.8,2.5,.9,4.2v6.7c0,.7,.5,1.2,1.2,1.2s1.2-.5,1.2-1.2v-7.4c.1-5.3-3.4-8.9-8.9-9Z"/></g></g></g></svg>