<?xml version="1.0" encoding="UTF-8"?><svg xmlns="http://www.w3.org/2000/svg" viewBox="0 0 119.14 129.67"><g id="a"/><g id="b"><g id="c"><g><g><path d="M58.51,42.23c-13.31,0-13.71,19.95,0,19.95,13.71,0,13.31-19.95,0-19.95Zm0,17.32c-9.8-.17-9.8-14.52,0-14.69,9.8,.17,9.8,14.52,0,14.69Z"/><path d="M90.51,15.22c-.77,0-1.39,.61-1.39,1.37v9.94c-1.59-1.96-4.02-3.35-7.37-3.35-6.65,0-10.08,4.99-10.13,9.98,.05,4.99,3.48,9.98,10.13,9.98,3.36,0,5.79-1.39,7.37-3.35v1.66c0,.75,.62,1.37,1.39,1.37s1.39-.61,1.39-1.37V16.59c0-.75-.62-1.37-1.39-1.37Zm-8.76,25.29c-4.9-.09-7.35-3.72-7.35-7.35,0-3.63,2.45-7.26,7.35-7.35,4.9,.09,7.35,3.72,7.35,7.35,0,3.63-2.45,7.26-7.35,7.35Z"/><path d="M117.73,.32c-.77,0-1.39,.61-1.39,1.37v1.62C114.75,1.37,112.33,0,108.99,0c-6.65,0-10.08,4.99-10.13,9.98,.05,4.99,3.48,9.98,10.13,9.98,3.34,0,5.76-1.37,7.35-3.32v1.65c0,.76,.62,1.37,1.39,1.37s1.39-.61,1.39-1.37V1.7c0-.76-.62-1.37-1.39-1.37Zm-8.74,17c-4.9-.09-7.35-3.72-7.35-7.35,0-3.63,2.45-7.26,7.35-7.35,4.9,.09,7.35,3.72,7.35,7.35,0,3.63-2.45,7.26-7.35,7.35Z"/><path d="M27.61,42.52c-4.23,0-7.16,2.02-8.74,4.77-1.58-2.75-4.51-4.77-8.74-4.77-3.07,0-5.72,1.3-7.35,3.49v-1.67c0-.76-.62-1.37-1.39-1.37s-1.39,.62-1.39,1.37v16.47c0,.76,.62,1.37,1.39,1.37s1.39-.61,1.39-1.37c.05-1.6-.12-8.2,.13-10.57,.08-.49,.19-.83,.25-1.01,1.06-2.44,3.52-3.99,6.97-4.09,4.9,.09,7.35,3.71,7.35,7.34v8.32c0,.76,.62,1.37,1.39,1.37s1.39-.61,1.39-1.37v-8.32h0c0-3.63,2.45-7.26,7.35-7.35,3.18,0,5.27,1.49,6.38,3.5,.63,1.22,.96,2.79,.97,4.7v7.47c0,.76,.63,1.37,1.39,1.37s1.39-.61,1.39-1.37v-8.32c0-5.85-3.88-9.87-10.13-9.98Z"/></g><g><g><path d="M.87,120.07h.74l2.68,5.99,2.68-5.99h.75v6.92h-.7v-5.52l-2.46,5.52h-.51l-2.47-5.5v5.5H.87v-6.92Z"/><path d="M9.25,119.96c0-.3,.23-.51,.51-.51s.51,.21,.51,.51-.23,.52-.51,.52-.51-.22-.51-.52Zm.16,1.55h.7v5.47h-.7v-5.47Z"/><path d="M15.9,123.86c0-1.21-.66-1.83-1.66-1.83s-1.73,.64-1.73,1.97v2.99h-.7v-5.47h.7v.93c.35-.68,1.05-1.03,1.86-1.03,1.24,0,2.22,.76,2.22,2.37v3.21h-.69v-3.13Z"/><path d="M18.09,119.96c0-.3,.23-.51,.51-.51s.51,.21,.51,.51-.23,.52-.51,.52-.51-.22-.51-.52Zm.16,1.55h.7v5.47h-.7v-5.47Z"/><path d="M22.53,127.07c-1.24,0-2.11-.62-2.21-1.62h.72c.06,.6,.58,1.03,1.47,1.03,.78,0,1.22-.42,1.22-.94,0-1.35-3.29-.56-3.29-2.62,0-.81,.77-1.48,1.92-1.48s1.94,.62,2,1.67h-.7c-.04-.61-.49-1.07-1.32-1.07-.73,0-1.19,.39-1.19,.87,0,1.48,3.24,.69,3.27,2.63,0,.88-.77,1.53-1.9,1.53Z"/><path d="M26.06,122.11h-.76v-.59h.76v-1.37h.71v1.37h1.5v.59h-1.5v3.4c0,.67,.23,.88,.86,.88h.64v.6h-.75c-.95,0-1.46-.39-1.46-1.48v-3.4Z"/><path d="M30.23,126.99h-.7v-5.47h.7v.97c.3-.67,.93-1.07,1.87-1.07v.73h-.19c-.91,0-1.68,.41-1.68,1.78v3.06Z"/><path d="M37.04,121.51h.72l-3.25,8.05h-.73l1.06-2.61-2.24-5.44h.77l1.86,4.67,1.8-4.67Z"/><path d="M44.06,127.07c-1.54,0-2.72-1.08-2.72-2.82s1.2-2.82,2.74-2.82,2.74,1.07,2.74,2.82-1.21,2.82-2.76,2.82Zm0-.61c1.03,0,2.03-.7,2.03-2.21s-.98-2.2-2.02-2.2-2.01,.7-2.01,2.2,.96,2.21,2,2.21Z"/><path d="M48.38,122.11h-.76v-.59h.76v-.38c0-1.17,.55-1.73,1.93-1.73v.6c-.93,0-1.23,.34-1.23,1.13v.38h1.27v.59h-1.27v4.88h-.7v-4.88Z"/><path d="M60.19,123.5c0,2.18-1.37,3.49-3.71,3.49h-2.07v-7.01h2.07c2.34,0,3.71,1.32,3.71,3.52Zm-3.71,2.91c1.99,0,3-1.1,3-2.91s-1.01-2.94-3-2.94h-1.37v5.84h1.37Z"/><path d="M61.42,119.96c0-.3,.23-.51,.51-.51s.51,.21,.51,.51-.23,.52-.51,.52-.51-.22-.51-.52Zm.16,1.55h.7v5.47h-.7v-5.47Z"/><path d="M66.27,121.43c1.08,0,1.85,.58,2.17,1.27v-1.19h.7v5.61c0,1.53-1.05,2.55-2.56,2.55-1.41,0-2.4-.72-2.62-1.86h.69c.23,.74,.92,1.25,1.92,1.25s1.85-.69,1.85-1.93v-1.35c-.32,.7-1.08,1.29-2.17,1.29-1.5,0-2.62-1.11-2.62-2.83s1.11-2.81,2.62-2.81Zm.13,.61c-1.15,0-2.03,.8-2.03,2.19s.88,2.22,2.03,2.22,2.04-.84,2.04-2.21-.91-2.2-2.04-2.2Z"/><path d="M70.68,119.96c0-.3,.23-.51,.51-.51s.51,.21,.51,.51-.23,.52-.51,.52-.51-.22-.51-.52Zm.16,1.55h.7v5.47h-.7v-5.47Z"/><path d="M73.44,122.11h-.76v-.59h.76v-1.37h.71v1.37h1.5v.59h-1.5v3.4c0,.67,.23,.88,.86,.88h.64v.6h-.75c-.95,0-1.46-.39-1.46-1.48v-3.4Z"/><path d="M79.2,121.43c1.1,0,1.85,.59,2.17,1.28v-1.2h.7v5.47h-.7v-1.21c-.32,.7-1.08,1.29-2.18,1.29-1.49,0-2.61-1.11-2.61-2.83s1.11-2.81,2.62-2.81Zm.13,.61c-1.15,0-2.03,.8-2.03,2.19s.88,2.22,2.03,2.22,2.04-.84,2.04-2.21-.91-2.2-2.04-2.2Z"/><path d="M83.77,119.57h.7v7.42h-.7v-7.42Z"/><path d="M93.07,125.32h-3.19l-.61,1.66h-.74l2.55-6.92h.79l2.55,6.92h-.74l-.61-1.66Zm-1.59-4.37l-1.38,3.79h2.77l-1.38-3.79Z"/><path d="M95.83,122.11h-.76v-.59h.76v-.38c0-1.17,.55-1.73,1.93-1.73v.6c-.93,0-1.23,.34-1.23,1.13v.38h1.27v.59h-1.27v4.88h-.7v-4.88Z"/><path d="M99.19,122.11h-.76v-.59h.76v-.38c0-1.17,.55-1.73,1.93-1.73v.6c-.93,0-1.23,.34-1.23,1.13v.38h1.27v.59h-1.27v4.88h-.7v-4.88Z"/><path d="M104.66,121.43c1.1,0,1.85,.59,2.17,1.28v-1.2h.7v5.47h-.7v-1.21c-.32,.7-1.08,1.29-2.18,1.29-1.49,0-2.61-1.11-2.61-2.83s1.11-2.81,2.62-2.81Zm.13,.61c-1.15,0-2.03,.8-2.03,2.19s.88,2.22,2.03,2.22,2.04-.84,2.04-2.21-.91-2.2-2.04-2.2Z"/><path d="M109.07,119.96c0-.3,.23-.51,.51-.51s.51,.21,.51,.51-.23,.52-.51,.52-.51-.22-.51-.52Zm.16,1.55h.7v5.47h-.7v-5.47Z"/><path d="M112.33,126.99h-.7v-5.47h.7v.97c.3-.67,.93-1.07,1.87-1.07v.73h-.19c-.91,0-1.68,.41-1.68,1.78v3.06Z"/><path d="M117.24,127.07c-1.24,0-2.11-.62-2.21-1.62h.72c.06,.6,.58,1.03,1.47,1.03,.78,0,1.22-.42,1.22-.94,0-1.35-3.29-.56-3.29-2.62,0-.81,.77-1.48,1.92-1.48s1.94,.62,2,1.67h-.7c-.04-.61-.49-1.07-1.32-1.07-.73,0-1.19,.39-1.19,.87,0,1.48,3.24,.69,3.27,2.63,0,.88-.77,1.53-1.9,1.53Z"/></g><g><g><path d="M.76,102.2v.6h1.92v.55H.49v2.01h1.86l-.44,.74-1.78,.03v.6l1.42-.02-.63,1.07,.52,.31,.21-.35c.5,.17,.95,.35,1.34,.53-1.07,.66-2.32,.8-2.34,.8l.06,.6c.1,0,1.67-.18,2.91-1.1,.88,.46,1.36,.83,1.37,.84l.38-.47s-.47-.36-1.24-.78c.38-.39,.67-.89,.84-1.49l1.46-.02v-.6l-3.78,.06,.43-.73h2.25v-2.01H3.28v-.55h2.02v-1.26h.74v-.6h-.74v-1.26H3.28v-.6h-.6v.6H.76v1.26H.01v.6H.76v.66Zm3.55,4.47c-.17,.48-.44,.88-.78,1.19-.45-.22-.97-.44-1.56-.65l.3-.51,2.05-.03Zm-3.21-2.71h1.59v.8H1.09v-.8Zm3.6,0v.8h-1.42v-.8h1.42Zm-3.34-1.76v-.66h1.32v.66H1.36Zm3.34,0h-1.42v-.66h1.42v.66Zm0-1.92v.66h-1.42v-.66h1.42Zm-3.34,0h1.32v.66H1.36v-.66Z"/><path d="M6.22,104.56c.27-.46,.49-.97,.68-1.48,.23,.97,.66,2.06,1.23,3.13-1.01,1.85-2.31,2.74-2.33,2.75l.33,.5c.09-.06,1.32-.89,2.35-2.61,.61,1.04,1.33,2.01,2.08,2.77l.43-.43c-.79-.79-1.54-1.86-2.16-2.97,.56-1.13,1-2.58,1.05-4.36h.71v-.6h-3.12c.27-1.14,.38-2.03,.38-2.1l-.6-.06s-.33,3.07-1.54,5.15l.52,.3Zm2.22,.97c-.66-1.34-1.09-2.67-1.12-3.66h1.92c-.04,1.46-.37,2.66-.81,3.66Z"/></g><g><path d="M16.77,109.61v-7.87c.74-1.16,1.15-2.07,1.17-2.13l-.62-.27s-1.05,2.37-2.86,4.31l.49,.46c.42-.45,.8-.92,1.14-1.38v6.89h.67Z"/><polygon points="24.74 101.48 21.62 101.48 21.62 99.14 20.95 99.14 20.95 101.48 17.84 101.48 17.84 102.16 24.74 102.16 24.74 101.48"/><path d="M23.9,103.3l.07-.33-.66-.13-.06,.33s-.53,2.67-1.37,5.3h-1.43c-.31-1.9-.58-3.79-.71-4.71-.05-.32-.08-.52-.09-.58l-.06-.33-.66,.11,.06,.33c0,.06,.04,.26,.08,.57,.13,.91,.4,2.75,.7,4.62h-2.04v.67h7.33v-.67h-2.47c.82-2.6,1.32-5.15,1.33-5.18Z"/></g><g><path d="M30.36,103.03v.34h2.09v1.11h-2.03c-.16,0-.29,.11-.33,.26l-.54,2.24,.66,.16,.07-.3h2.16c-.06,.95-.22,1.96-.4,2.15-.14,.16-.72,.13-1.15,.11-.18,0-.36-.02-.53-.02v.67c.16,0,.33,0,.5,.02,.18,0,.36,.02,.54,.02,.46,0,.88-.06,1.13-.34,.47-.51,.57-2.37,.59-2.93,0-.09-.03-.18-.09-.25s-.15-.1-.24-.1h-2.35l.24-1.01h1.77v.22h.67v-2.34c0-.19-.15-.34-.34-.34h-1.88c1.95-1.27,2.54-2.6,2.57-2.68,.04-.1,.03-.22-.03-.32-.06-.09-.17-.15-.28-.15h-3.17v.67h2.58c-.22,.33-.61,.79-1.2,1.29-.59-.53-1.23-.9-1.26-.92l-.29,.53s.56,.32,1.07,.77c-.57,.41-1.29,.84-2.2,1.21l.25,.62c.54-.22,.99-.46,1.42-.7Z"/><path d="M37.24,99.86l-.47-.49s-.43,.41-1.04,.96c-.54-.63-.86-1.13-.86-1.14l-.58,.34c.07,.12,1.77,2.94,4.71,3.92l.21-.64c-.64-.22-1.22-.54-1.73-.9l1.09-.99-.45-.5-1.18,1.07c-.27-.23-.52-.45-.75-.68,.62-.55,1.05-.97,1.05-.97Z"/><path d="M33.42,109.87c1.07-.24,1.89-.65,2.5-1.1,.6,.38,1.38,.76,2.41,1.09l.21-.64c-.87-.28-1.55-.6-2.07-.91,.93-.9,1.2-1.81,1.22-1.87,.03-.1,0-.21-.06-.29s-.16-.13-.27-.13h-3.03c-.09,0-.19,.04-.25,.11-.06,.07-.1,.16-.09,.26,0,.06,.12,.98,1.35,1.97-.52,.35-1.2,.67-2.07,.86l.15,.66Zm1.38-3.19h2.06c-.16,.32-.46,.79-.97,1.24-.64-.48-.95-.94-1.1-1.24Z"/><path d="M33.72,105.11l.03,.34-.03-.34,.05,.67c.05,0,1.31-.12,1.24-2.18,0-.08,0-.21,0-.29h1.29c.06,0,.13,.08,.13,.18v1.3c0,.44,.33,.79,.74,.79h.63c.21,0,.5-.14,.65-.39l.32-.56-.59-.33-.32,.56s-.05,.04-.06,.05h-.63s-.07-.05-.07-.12v-1.3c0-.47-.36-.86-.8-.86h-1.37c-.16,0-.3,.06-.4,.16-.21,.22-.2,.55-.19,.86,.04,1.34-.6,1.44-.63,1.45Z"/></g><path d="M47.19,108.75v-2.48h1.55c.29,.71,1.41,2.89,4.4,3.76l.19-.65c-.96-.28-1.68-.71-2.25-1.17,.77-.43,1.43-1,1.46-1.03l-.45-.51s-.76,.66-1.55,1.06c-.55-.56-.89-1.11-1.07-1.47h3.76v-.67h-2.36v-1.25h1.74v-.67h-1.74v-1.22h1.38c.19,0,.34-.15,.34-.34v-1.83c0-.3-.24-.55-.55-.55h-7.41c-.09,0-.18,.04-.24,.1-.06,.07-.1,.16-.09,.25,0,.07,.33,7.28-1.24,9.35l.54,.41c.59-.77,.93-2.12,1.14-3.58h1.79v2.6l-1.3,.23,.12,.66,4.19-.75-.12-.66-2.22,.4Zm3.01-3.15h-2.5v-1.25h2.5v1.25Zm0-1.92h-2.5v-1.22h2.5v1.22Zm1.72-3.27v1.37h-6.92c0-.59-.01-1.07-.02-1.37h6.94Zm-6.92,2.04h2.04v1.22h-1.6v.67h1.6v1.25h-2.22c.12-1.09,.17-2.2,.19-3.14Z"/><g><path d="M61.94,101.09h.72v-.67h-2.34v-1.12h-.67v1.12h-2.34v.67h.72c.12,.53,.39,1.79,.53,2.74h-1.46v.67h5.78v-.67h-1.46c.14-.94,.41-2.21,.53-2.74Zm-3.21,0h2.52c-.14,.63-.39,1.84-.52,2.74h-1.49c-.12-.9-.38-2.11-.51-2.74Z"/><path d="M61.82,105.49h-3.65c-.19,0-.34,.15-.34,.34v3.94h.67v-.51h2.97v.51h.67v-3.94c0-.19-.15-.34-.34-.34Zm-3.31,3.1v-2.43h2.97v2.43h-2.97Z"/><path d="M67.05,101.03c.11-.28,.07-.6-.1-.85-.16-.24-.44-.38-.72-.38h-2.04c-.29,0-.53,.24-.53,.54v9.61h.67v-9.47h1.9c.09,0,.14,.06,.17,.09,.02,.03,.07,.12,.02,.24l-.91,2.78c-.03,.1-.02,.21,.04,.3,.64,.93,1.52,2.7,1.12,3.46-.16,.31-.55,.46-1.16,.46h-.34v.67h.34c.88,0,1.47-.28,1.76-.82,.65-1.24-.66-3.41-1.07-4.02l.86-2.61Z"/></g></g></g></g></g></g></svg>