<?xml version="1.0" encoding="UTF-8"?><svg xmlns="http://www.w3.org/2000/svg" viewBox="0 0 201.2 61.17"><g id="a"/><g id="b"><g id="c"><g><g><path d="M47.87,34.55c-10.89,0-11.21,16.32,0,16.32,11.21,0,10.89-16.32,0-16.32Zm0,14.17c-8.01-.14-8.02-11.88,0-12.02,8.02,.14,8.01,11.88,0,12.02Z"/><path d="M74.04,12.45c-.63,0-1.13,.5-1.13,1.12v8.14c-1.3-1.6-3.29-2.74-6.03-2.74-5.44,0-8.25,4.08-8.29,8.16,.04,4.08,2.84,8.16,8.29,8.16,2.75,0,4.73-1.14,6.03-2.74v1.35c0,.62,.51,1.12,1.13,1.12s1.13-.5,1.13-1.12V13.57c0-.62-.51-1.12-1.13-1.12Zm-7.17,20.69c-4.01-.07-6.01-3.04-6.01-6.01,0-2.97,2-5.94,6.01-6.01,4.01,.07,6.01,3.04,6.01,6.01,0,2.97-2,5.94-6.01,6.01Z"/><path d="M96.31,.27c-.63,0-1.14,.5-1.14,1.12v1.33C93.88,1.12,91.89,0,89.16,0c-5.44,0-8.25,4.08-8.29,8.16,.04,4.08,2.84,8.16,8.29,8.16,2.73,0,4.71-1.12,6.01-2.71v1.35c0,.62,.51,1.12,1.14,1.12s1.14-.5,1.14-1.12V1.39c0-.62-.51-1.12-1.14-1.12Zm-7.15,13.91c-4.01-.07-6.01-3.04-6.01-6.01,0-2.97,2-5.94,6.01-6.01,4.01,.07,6.01,3.04,6.01,6.01,0,2.97-2,5.94-6.01,6.01Z"/><path d="M22.59,34.79c-3.46,0-5.86,1.65-7.15,3.9-1.3-2.25-3.69-3.9-7.15-3.9-2.51,0-4.68,1.06-6.01,2.86v-1.37c0-.62-.51-1.12-1.14-1.12s-1.14,.5-1.14,1.12v13.48c0,.62,.51,1.12,1.14,1.12s1.14-.5,1.14-1.12c.04-1.31-.1-6.71,.1-8.65,.06-.4,.15-.68,.21-.82,.86-2,2.88-3.26,5.7-3.35,4.01,.07,6.01,3.04,6.01,6v6.81c0,.62,.51,1.12,1.14,1.12s1.14-.5,1.14-1.12v-6.8h0c0-2.97,2.01-5.94,6.01-6.01,2.6,0,4.31,1.22,5.22,2.86,.51,1,.78,2.28,.79,3.84v6.11c0,.62,.51,1.12,1.14,1.12s1.14-.5,1.14-1.12v-6.8c0-4.78-3.17-8.07-8.29-8.16Z"/></g><g><g><path d="M103.96,53.27h.61l2.2,4.93,2.2-4.93h.62v5.69h-.58v-4.54l-2.03,4.54h-.42l-2.03-4.52v4.52h-.58v-5.69Z"/><path d="M110.85,53.18c0-.25,.19-.42,.42-.42s.42,.17,.42,.42-.19,.43-.42,.43-.42-.18-.42-.43Zm.13,1.28h.58v4.5h-.58v-4.5Z"/><path d="M116.32,56.39c0-1-.54-1.51-1.37-1.51s-1.43,.53-1.43,1.62v2.46h-.58v-4.5h.58v.77c.29-.56,.87-.85,1.53-.85,1.02,0,1.83,.63,1.83,1.94v2.64h-.57v-2.57Z"/><path d="M118.12,53.18c0-.25,.19-.42,.42-.42s.42,.17,.42,.42-.19,.43-.42,.43-.42-.18-.42-.43Zm.13,1.28h.58v4.5h-.58v-4.5Z"/><path d="M121.77,59.02c-1.02,0-1.74-.51-1.81-1.33h.59c.05,.49,.48,.85,1.21,.85,.64,0,1-.35,1-.77,0-1.11-2.7-.46-2.7-2.15,0-.67,.63-1.22,1.58-1.22s1.6,.51,1.65,1.38h-.58c-.03-.5-.4-.88-1.09-.88-.6,0-.98,.32-.98,.72,0,1.22,2.66,.57,2.69,2.16,0,.73-.63,1.26-1.56,1.26Z"/><path d="M124.67,54.94h-.63v-.49h.63v-1.13h.58v1.13h1.24v.49h-1.24v2.79c0,.55,.19,.72,.71,.72h.53v.49h-.62c-.78,0-1.2-.32-1.2-1.22v-2.79Z"/><path d="M128.1,58.96h-.58v-4.5h.58v.8c.25-.55,.77-.88,1.54-.88v.6h-.16c-.75,0-1.38,.34-1.38,1.47v2.51Z"/><path d="M133.7,54.46h.59l-2.67,6.62h-.6l.87-2.14-1.85-4.47h.63l1.53,3.84,1.48-3.84Z"/><path d="M139.47,59.02c-1.27,0-2.23-.89-2.23-2.32s.99-2.32,2.25-2.32,2.25,.88,2.25,2.32-1,2.32-2.27,2.32Zm0-.5c.85,0,1.67-.58,1.67-1.81s-.81-1.81-1.66-1.81-1.66,.58-1.66,1.81,.79,1.81,1.65,1.81Z"/><path d="M143.02,54.94h-.63v-.49h.63v-.31c0-.96,.45-1.43,1.59-1.43v.49c-.77,0-1.01,.28-1.01,.93v.31h1.05v.49h-1.05v4.01h-.58v-4.01Z"/><path d="M152.73,56.09c0,1.79-1.13,2.87-3.05,2.87h-1.7v-5.76h1.7c1.92,0,3.05,1.09,3.05,2.89Zm-3.05,2.39c1.63,0,2.46-.91,2.46-2.39s-.83-2.41-2.46-2.41h-1.13v4.8h1.13Z"/><path d="M153.74,53.18c0-.25,.19-.42,.42-.42s.42,.17,.42,.42-.19,.43-.42,.43-.42-.18-.42-.43Zm.13,1.28h.58v4.5h-.58v-4.5Z"/><path d="M157.73,54.39c.89,0,1.52,.48,1.78,1.05v-.98h.58v4.61c0,1.26-.87,2.09-2.1,2.09-1.16,0-1.97-.59-2.15-1.53h.57c.19,.61,.76,1.03,1.58,1.03s1.52-.57,1.52-1.59v-1.11c-.26,.58-.89,1.06-1.78,1.06-1.24,0-2.15-.91-2.15-2.32s.91-2.31,2.15-2.31Zm.11,.5c-.95,0-1.67,.66-1.67,1.8s.72,1.82,1.67,1.82,1.67-.69,1.67-1.81-.75-1.81-1.67-1.81Z"/><path d="M161.36,53.18c0-.25,.19-.42,.42-.42s.42,.17,.42,.42-.19,.43-.42,.43-.42-.18-.42-.43Zm.13,1.28h.58v4.5h-.58v-4.5Z"/><path d="M163.62,54.94h-.63v-.49h.63v-1.13h.58v1.13h1.24v.49h-1.24v2.79c0,.55,.19,.72,.71,.72h.53v.49h-.62c-.78,0-1.2-.32-1.2-1.22v-2.79Z"/><path d="M168.36,54.39c.91,0,1.52,.49,1.78,1.05v-.99h.58v4.5h-.58v-1c-.26,.58-.89,1.06-1.79,1.06-1.23,0-2.14-.91-2.14-2.32s.91-2.31,2.15-2.31Zm.11,.5c-.95,0-1.67,.66-1.67,1.8s.72,1.82,1.67,1.82,1.67-.69,1.67-1.81-.75-1.81-1.67-1.81Z"/><path d="M172.12,52.86h.58v6.1h-.58v-6.1Z"/><path d="M179.76,57.59h-2.62l-.5,1.37h-.61l2.1-5.69h.65l2.09,5.69h-.61l-.5-1.37Zm-1.31-3.59l-1.14,3.11h2.27l-1.14-3.11Z"/><path d="M182.03,54.94h-.63v-.49h.63v-.31c0-.96,.45-1.43,1.59-1.43v.49c-.77,0-1.01,.28-1.01,.93v.31h1.05v.49h-1.05v4.01h-.58v-4.01Z"/><path d="M184.79,54.94h-.63v-.49h.63v-.31c0-.96,.45-1.43,1.59-1.43v.49c-.77,0-1.01,.28-1.01,.93v.31h1.05v.49h-1.05v4.01h-.58v-4.01Z"/><path d="M189.29,54.39c.91,0,1.52,.49,1.78,1.05v-.99h.58v4.5h-.58v-1c-.26,.58-.89,1.06-1.79,1.06-1.23,0-2.14-.91-2.14-2.32s.91-2.31,2.15-2.31Zm.11,.5c-.95,0-1.67,.66-1.67,1.8s.72,1.82,1.67,1.82,1.67-.69,1.67-1.81-.75-1.81-1.67-1.81Z"/><path d="M192.92,53.18c0-.25,.19-.42,.42-.42s.42,.17,.42,.42-.19,.43-.42,.43-.42-.18-.42-.43Zm.13,1.28h.58v4.5h-.58v-4.5Z"/><path d="M195.59,58.96h-.58v-4.5h.58v.8c.25-.55,.77-.88,1.54-.88v.6h-.16c-.75,0-1.38,.34-1.38,1.47v2.51Z"/><path d="M199.63,59.02c-1.02,0-1.74-.51-1.81-1.33h.59c.05,.49,.48,.85,1.21,.85,.64,0,1-.35,1-.77,0-1.11-2.7-.46-2.7-2.15,0-.67,.63-1.22,1.58-1.22s1.6,.51,1.65,1.38h-.58c-.03-.5-.4-.88-1.09-.88-.6,0-.98,.32-.98,.72,0,1.22,2.66,.57,2.69,2.16,0,.73-.63,1.26-1.56,1.26Z"/></g><g><g><path d="M103.87,38.58v.5h1.58v.46h-1.8v1.65h1.53l-.36,.61-1.46,.02v.5l1.16-.02-.52,.88,.43,.25,.17-.29c.41,.14,.78,.29,1.1,.44-.88,.55-1.91,.66-1.93,.66l.05,.49c.08,0,1.37-.15,2.39-.9,.72,.38,1.12,.68,1.13,.69l.31-.39s-.38-.3-1.02-.64c.31-.32,.55-.73,.69-1.23l1.2-.02v-.5l-3.11,.05,.35-.6h1.85v-1.65h-1.66v-.46h1.66v-1.04h.61v-.5h-.61v-1.04h-1.66v-.49h-.5v.49h-1.58v1.04h-.61v.5h.61v.54Zm2.92,3.68c-.14,.4-.36,.72-.64,.97-.37-.18-.79-.36-1.29-.53l.25-.42,1.68-.02Zm-2.64-2.23h1.3v.66h-1.3v-.66Zm2.96,0v.66h-1.16v-.66h1.16Zm-2.74-1.45v-.54h1.08v.54h-1.08Zm2.74,0h-1.16v-.54h1.16v.54Zm0-1.58v.54h-1.16v-.54h1.16Zm-2.74,0h1.08v.54h-1.08v-.54Z"/><path d="M108.36,40.52c.22-.38,.4-.8,.56-1.21,.19,.8,.54,1.69,1.01,2.58-.83,1.52-1.9,2.25-1.92,2.26l.27,.41c.07-.05,1.09-.73,1.93-2.15,.5,.85,1.09,1.66,1.71,2.28l.35-.35c-.65-.65-1.27-1.53-1.78-2.44,.46-.93,.82-2.12,.86-3.58h.59v-.5h-2.57c.23-.94,.31-1.67,.32-1.73l-.49-.05s-.27,2.52-1.27,4.24l.43,.25Zm1.82,.8c-.54-1.1-.9-2.2-.92-3.01h1.58c-.03,1.2-.3,2.19-.66,3.01Z"/></g><g><path d="M117.03,44.67v-6.47c.61-.95,.94-1.7,.96-1.75l-.51-.22s-.87,1.95-2.35,3.54l.41,.38c.35-.37,.66-.76,.93-1.14v5.66h.55Z"/><polygon points="123.58 37.99 121.03 37.99 121.03 36.06 120.47 36.06 120.47 37.99 117.91 37.99 117.91 38.55 123.58 38.55 123.58 37.99"/><path d="M122.9,39.49l.05-.27-.54-.11-.05,.27s-.43,2.19-1.13,4.36h-1.18c-.25-1.56-.48-3.11-.59-3.87-.04-.26-.06-.43-.07-.48l-.05-.27-.55,.09,.05,.27s.03,.21,.07,.47c.11,.75,.33,2.26,.57,3.8h-1.68v.55h6.03v-.55h-2.03c.67-2.14,1.09-4.23,1.09-4.25Z"/></g><g><path d="M128.21,39.26v.28h1.72v.91h-1.67c-.13,0-.24,.09-.27,.21l-.45,1.84,.54,.13,.06-.25h1.77c-.05,.78-.18,1.61-.32,1.77-.12,.13-.59,.1-.94,.09-.15,0-.3-.01-.44-.01v.55c.13,0,.27,0,.41,.01,.15,0,.3,.02,.45,.02,.38,0,.72-.05,.93-.28,.38-.42,.47-1.95,.48-2.41,0-.08-.03-.15-.08-.2s-.12-.08-.2-.08h-1.93l.2-.83h1.45v.18h.55v-1.92c0-.15-.12-.28-.28-.28h-1.55c1.6-1.05,2.09-2.14,2.11-2.2,.04-.09,.03-.18-.03-.26-.05-.08-.14-.12-.23-.12h-2.61v.55h2.12c-.18,.27-.5,.65-.99,1.06-.48-.44-1.01-.74-1.04-.76l-.24,.43s.46,.26,.88,.63c-.47,.34-1.06,.69-1.81,.99l.21,.51c.44-.18,.82-.37,1.17-.57Z"/><path d="M133.87,36.65l-.38-.4s-.36,.34-.86,.79c-.45-.52-.7-.93-.71-.94l-.48,.28c.06,.1,1.45,2.41,3.87,3.23l.18-.52c-.53-.18-1-.44-1.43-.74l.9-.81-.37-.41-.97,.88c-.22-.19-.43-.37-.61-.56,.51-.46,.86-.8,.86-.8Z"/><path d="M130.72,44.89c.88-.2,1.55-.54,2.06-.91,.49,.32,1.14,.63,1.98,.9l.17-.53c-.72-.23-1.27-.49-1.7-.75,.77-.74,.99-1.49,1-1.54,.02-.08,0-.17-.05-.24s-.13-.11-.22-.11h-2.49c-.08,0-.15,.03-.21,.09-.05,.06-.08,.14-.07,.21,0,.05,.1,.8,1.11,1.62-.43,.29-.99,.55-1.7,.71l.12,.54Zm1.13-2.62h1.69c-.14,.27-.38,.65-.79,1.02-.52-.4-.78-.77-.9-1.02Z"/><path d="M130.97,40.98l.03,.28-.02-.28,.04,.55s1.07-.1,1.02-1.79c0-.06,0-.17,0-.24h1.06s.11,.06,.11,.15v1.07c0,.36,.27,.65,.61,.65h.52c.17,0,.41-.11,.53-.32l.26-.46-.48-.27-.26,.46s-.04,.04-.05,.04h-.52s-.06-.04-.06-.1v-1.07c0-.39-.29-.7-.66-.7h-1.13c-.13,0-.25,.05-.33,.14-.17,.18-.16,.45-.15,.71,.03,1.1-.49,1.19-.52,1.19Z"/></g><path d="M142.05,43.96v-2.04h1.27c.24,.58,1.16,2.38,3.62,3.09l.15-.53c-.79-.23-1.38-.58-1.85-.96,.63-.36,1.18-.82,1.2-.84l-.37-.42s-.63,.54-1.28,.87c-.45-.46-.73-.91-.88-1.21h3.09v-.55h-1.94v-1.03h1.43v-.55h-1.43v-1.01h1.14c.15,0,.28-.12,.28-.28v-1.51c0-.25-.2-.45-.45-.45h-6.1c-.08,0-.15,.03-.2,.09-.05,.06-.08,.13-.08,.2,0,.06,.27,5.99-1.02,7.69l.44,.34c.48-.63,.77-1.75,.94-2.94h1.47v2.14l-1.07,.19,.1,.55,3.45-.62-.1-.55-1.82,.33Zm2.48-2.59h-2.05v-1.03h2.05v1.03Zm0-1.58h-2.05v-1.01h2.05v1.01Zm1.41-2.69v1.13h-5.69c0-.48,0-.88-.02-1.13h5.7Zm-5.69,1.68h1.67v1.01h-1.31v.55h1.31v1.03h-1.83c.1-.9,.14-1.81,.15-2.58Z"/><g><path d="M154.17,37.67h.59v-.55h-1.92v-.92h-.55v.92h-1.92v.55h.59c.1,.44,.32,1.48,.43,2.25h-1.2v.55h4.75v-.55h-1.2c.11-.78,.34-1.81,.43-2.25Zm-2.64,0h2.08c-.11,.52-.32,1.51-.42,2.25h-1.23c-.1-.74-.31-1.73-.42-2.25Z"/><path d="M154.07,41.29h-3c-.15,0-.28,.12-.28,.28v3.24h.55v-.42h2.44v.42h.55v-3.24c0-.15-.12-.28-.28-.28Zm-2.72,2.55v-2h2.44v2h-2.44Z"/><path d="M158.37,37.62c.09-.23,.06-.49-.08-.7-.14-.2-.36-.32-.59-.32h-1.68c-.24,0-.44,.2-.44,.44v7.9h.55v-7.79h1.56c.07,0,.12,.05,.14,.08,.02,.03,.06,.1,.02,.2l-.75,2.29c-.03,.08-.01,.17,.04,.24,.53,.77,1.25,2.22,.92,2.85-.13,.25-.45,.38-.95,.38h-.28v.55h.28c.72,0,1.21-.23,1.44-.68,.53-1.02-.55-2.8-.88-3.3l.7-2.14Z"/></g></g></g></g></g></g></svg>